<?xml version="1.0" encoding="utf-8"?>
<!-- Generator: Adobe Illustrator 28.0.0, SVG Export Plug-In . SVG Version: 6.00 Build 0)  -->
<svg version="1.1" id="Layer_1" xmlns="http://www.w3.org/2000/svg" xmlns:xlink="http://www.w3.org/1999/xlink" x="0px" y="0px" viewBox="0 0 1592 1054" style="enable-background: new 0 0 1592 1054" xml:space="preserve">
<g>
	<path d="M422.01,115.99c-28.81,0-51.52,9.91-68.16,29.69c-16.66,19.8-25.88,49.06-27.67,87.73c-3.61-37.79-13.73-66.81-30.37-87.06
		c-16.66-20.25-41.17-30.37-73.56-30.37c-27.9,0-49.73,9.91-65.46,29.69c-15.76,19.8-24.53,49.06-26.32,87.73l-2.7-51.29
		c-1.81-42.29-23.41-63.44-64.79-63.44c-19.8,0-35.33,6.07-46.57,18.22C5.14,149.06-0.47,167.75-0.47,192.93v620.91
		c0,50.41,22.04,75.59,66.14,75.59c43.19,0,64.79-25.18,64.79-75.59V294.16c0-21.6,1.79-37.56,5.4-47.92
		c3.59-10.33,8.1-17.08,13.5-20.25c5.4-3.14,11.24-4.72,17.55-4.72c8.98,0,16.41,4.51,22.27,13.5c5.84,9.01,8.77,24.3,8.77,45.9
		v533.17c0,50.41,22.04,75.59,66.14,75.59c43.19,0,64.79-25.18,64.79-75.59V294.16c0-21.6,1.79-37.56,5.4-47.92
		c3.59-10.33,8.31-17.08,14.17-20.25c5.84-3.14,11.47-4.72,16.87-4.72c9.89,0,17.55,4.51,22.94,13.5c5.4,9.01,8.1,24.3,8.1,45.9
		v533.17c0,50.41,22.04,75.59,66.14,75.59c44.08,0,66.14-25.18,66.14-75.59V280.66c0-53.99-8.56-94.93-25.65-122.83
		C485.89,129.95,458.9,115.99,422.01,115.99z"></path>
	<path d="M824.51,134.88c-24.3-12.59-52.64-18.89-85.04-18.89c-46.8,0-85.04,15.08-114.73,45.22
		c-29.69,30.16-44.55,71.33-44.55,123.51v45.9c0,20.71,4.73,37.58,14.17,50.62c9.45,13.05,24.97,19.57,46.57,19.57
		c44.08,0,66.14-23.83,66.14-71.54v-55.34c0-21.6,2.7-36.89,8.1-45.89c5.4-8.99,13.5-13.5,24.3-13.5c10.8,0,18.9,4.51,24.29,13.5
		c5.4,9,8.1,24.29,8.1,45.89v153l-82.34,33.27c-26.99,10.8-49.27,23.41-66.82,37.8c-17.55,14.4-30.16,32.86-37.79,55.34
		c-7.66,22.5-11.47,52.2-11.47,89.09v85.04c0,53.99,8.54,94.94,25.64,122.83c17.08,27.91,44.08,41.85,80.99,41.85
		c29.7,0,52.86-11.24,69.52-33.75c13.41-18.12,21.33-42.79,23.93-73.78l2.39,41.39c3.58,42.31,26.09,63.44,67.49,63.44
		c39.59,0,59.39-25.18,59.39-75.59V294.16c0-41.38-6.98-75.13-20.92-101.23C867.92,166.84,848.81,147.5,824.51,134.88z
		 M753.65,787.51c-5.86,3.16-11.94,4.72-18.22,4.72c-9,0-16.2-4.49-21.6-13.5c-5.4-8.99-8.1-23.83-8.1-44.54v-99.89
		c0-17.99,1.12-31.72,3.37-41.17c2.24-9.45,6.07-17.08,11.47-22.94c5.4-5.84,12.59-10.57,21.6-14.17l29.69-14.85v179.52
		c0,20.71-1.58,36.24-4.72,46.57C763.98,777.62,759.49,784.37,753.65,787.51z"></path>
	<path d="M1207.3,132.19c-11.26-8.99-26.78-13.5-46.57-13.5h-32.39V67.39c0-44.99-19.37-67.49-58.04-67.49
		c-39.62,0-61.22,21.15-64.79,63.44l-4.43,55.34h-11.77c-18.89,0-33.54,4.96-43.87,14.85c-10.37,9.91-15.53,22.5-15.53,37.8
		c0,14.4,4.93,27,14.85,37.8c9.89,10.8,24.29,16.2,43.19,16.2h9.45v491.33c0,61.2,13.26,105.28,39.82,132.28
		c26.54,26.99,59.16,40.5,97.87,40.5c19.77,0,35.09-4.49,45.88-13.5c10.8-8.98,16.2-22.48,16.2-40.5c0-10.79-2.26-19.34-6.74-25.64
		c-4.52-6.29-10.37-11.24-17.55-14.85c-7.21-3.59-14.4-7.87-21.6-12.82c-7.21-4.94-12.82-12.59-16.86-22.95
		c-4.05-10.33-6.08-26.32-6.08-47.92V225.32h32.39c19.79,0,35.31-4.94,46.57-14.85c11.25-9.89,16.88-22.95,16.88-39.15
		C1224.18,154.24,1218.55,141.19,1207.3,132.19z"></path>
	<path d="M1578.21,138.93c-11.71-13.5-28.34-20.25-49.94-20.25c-21.59,0-38.03,5.86-49.27,17.55
		c-11.26,11.71-17.78,30.16-19.57,55.34l-35.09,577.71h-1.35c-7.21,0-10.79-4.49-10.79-13.5l-35.09-564.21
		c-0.91-25.18-7.21-43.64-18.9-55.34c-11.7-11.68-28.34-17.55-49.94-17.55c-21.59,0-38.47,6.75-50.61,20.25
		c-12.15,13.5-16.88,35.56-14.18,66.14l60.74,577.71c2.7,27,10.8,46.57,24.29,58.72c13.5,12.15,34.19,18.22,62.09,18.22h14.31
		l-2.16,18.89c-1.81,23.39-8.33,38.68-19.57,45.9c-11.26,7.19-28.57,10.79-51.96,10.79c-44.1,0-66.14,20.25-66.14,60.74
		c0,18.89,7.19,33.28,21.59,43.2c14.38,9.89,34.19,14.85,59.39,14.85h4.05c31.49,0,59.6-5.87,84.36-17.55
		c24.73-11.71,44.98-31.95,60.74-60.74c15.73-28.81,26.32-68.4,31.72-118.78l64.79-651.95
		C1594.42,174.49,1589.9,152.43,1578.21,138.93z"></path>
</g>
</svg>
