<?xml version="1.0" encoding="utf-8"?>
<!-- Generator: Adobe Illustrator 28.1.0, SVG Export Plug-In . SVG Version: 6.00 Build 0)  -->
<svg version="1.1" id="Layer_1" xmlns="http://www.w3.org/2000/svg" xmlns:xlink="http://www.w3.org/1999/xlink" x="0px" y="0px" viewBox="0 0 595.55 256.76" style="enable-background: new 0 0 595.55 256.76" xml:space="preserve">
<style>.st0 {
  fill: #fff;
}

</style>
<g>
	<path class="st0" d="M0,40.38c7.56-3.62,19.73-5.92,27.3-5.92c13.81,0,20.72,3.29,25.32,17.76c6.58-7.23,24.01-17.76,43.08-17.76
		c20.39,0,28.61,10.19,31.9,19.07c8.22-8.55,28.28-19.07,45.05-19.07c31.9,0,37.82,18.42,37.82,55.58v113.13h-53.6V95.29
		c0-9.87-1.31-14.14-9.86-14.14c-4.61,0-12.83,3.62-14.8,5.26v116.74H78.27V95.29c0-9.87-0.99-14.14-9.21-14.14
		c-5.59,0-14.14,4.6-15.13,5.26v116.74H0V40.38z"></path>
	<path class="st0" d="M320.32,206.45c-15.13,0-23.02-4.28-24.99-20.06c-6.9,11.18-19.07,20.06-39.13,20.06
		c-24.66,0-39.79-19.4-39.79-49.66c0-42.09,25.98-52.95,74.32-56.89c0-14.47-0.99-20.72-15.13-20.72c-11.84,0-24.99,4.93-35.85,4.93
		c-14.14,0-19.07-10.85-19.4-36.5c17.1-7.56,41.11-13.15,68.4-13.15c38.15,0,56.23,14.47,56.23,56.89v111.48
		C338.4,205.13,328.21,206.45,320.32,206.45z M275.59,164.03c5.26,0,10.52-1.97,15.13-6.25v-27.3c-4.27,0.33-19.4,1.64-23.35,2.96
		c-1.97,4.6-2.96,9.87-2.96,14.8C264.41,158.11,268.69,164.03,275.59,164.03z"></path>
	<path class="st0" d="M352.95,40.71h20.06V26.24c0-20.39,14.47-28.61,51.3-25.65v40.12h29.27v41.44h-29.27v70.05
		c0,8.55,4.27,11.84,11.18,11.84s12.17-1.32,15.78-2.96l4.28,35.19c-9.54,5.92-25.32,9.87-42.75,9.87
		c-27.95,0-43.08-14.47-43.08-46.04V82.14h-16.77V40.71z"></path>
	<path class="st0" d="M462.69,251.83v-37.82c9.21,2.3,20.72,3.95,30.25,3.95c7.89,0,19.07-0.99,24.66-2.63l2.63-12.17h-26.97
		L458.42,39.72c5.26-1.32,21.71-3.62,31.57-3.62c19.73,0,25.32,3.95,27.62,26.64l11.18,103.92l13.48-129.24h53.27l-33.54,168.04
		c-5.92,31.24-25.98,51.3-66.76,51.3C481.77,256.76,471.9,255.12,462.69,251.83z"></path>
</g>
</svg>
